<svg width="18" height="20" viewBox="0 0 18 20" fill="none" xmlns="http://www.w3.org/2000/svg">
<path d="M3.88913 7.91735C4.36055 7.88855 4.94171 7.88855 5.68911 7.88855H12.089C12.8364 7.88855 13.4176 7.88855 13.889 7.91735M3.88913 7.91735C3.30082 7.95325 2.88344 8.03405 2.52719 8.21555C1.96271 8.50314 1.50377 8.96204 1.21616 9.52653C0.889185 10.1683 0.889185 11.0083 0.889185 12.6885V14.0885C0.889185 15.7686 0.888746 16.6384 0.88899 17.2009C0.888916 18.3259 1.45141 18.8884 2.57646 18.8884C3.13895 18.8884 4.00897 18.8884 5.68911 18.8884H12.089C13.7692 18.8884 14.9514 18.8884 15.5139 18.8884C16.0275 18.8884 16.8889 18.3259 16.8889 17.3257C16.8889 16.6718 16.8889 15.7686 16.8889 14.0885V12.6885C16.8889 11.0083 16.8889 10.1683 16.5619 9.52653C16.2743 8.96204 15.8154 8.50314 15.2509 8.21555C14.8946 8.03405 14.4773 7.95325 13.889 7.91735M3.88913 7.91735V5.88859C3.88913 3.12721 6.12768 0.888672 8.88905 0.888672C11.6504 0.888672 13.889 3.12721 13.889 5.88859V7.91735" stroke="white" stroke-width="1.77778" stroke-linecap="round" stroke-linejoin="round"/>
</svg>
