<svg width="18" height="27" viewBox="0 0 18 27" fill="none" xmlns="http://www.w3.org/2000/svg">
<path d="M6.12164 25.2474H11.8123M12.3814 17.1565C15.073 15.7944 16.934 12.872 16.934 9.48658C16.934 4.79957 13.367 1 8.96699 1C4.56695 1 1 4.79957 1 9.48658C1 12.872 2.86092 15.7944 5.55257 17.1565V17.9732C5.55257 19.103 5.55257 19.6678 5.72584 20.1135C5.95687 20.7075 6.4 21.1796 6.95772 21.4257C7.3761 21.6103 7.90636 21.6103 8.96699 21.6103C10.0276 21.6103 10.5579 21.6103 10.9763 21.4257C11.534 21.1796 11.9771 20.7075 12.2082 20.1135C12.3814 19.6678 12.3814 19.103 12.3814 17.9732V17.1565Z" stroke="white" stroke-width="2" stroke-linecap="round" stroke-linejoin="round"/>
</svg>
